<svg xmlns="http://www.w3.org/2000/svg" version="1.1" id="Your_Icon" x="0px" y="0px" viewBox="0 0 100 100" enable-background="new 0 0 100 100" xml:space="preserve">
<g>
	<path d="M95.229,26.616c-0.163-0.194-0.429-0.322-0.683-0.322c-0.037,0-0.898,0.013-0.898,1.052c0,0.387-0.348,1.184-0.709,1.85   c-0.168-0.399-0.332-0.75-0.414-0.925c-0.179-0.375-0.597-0.57-1-0.461c-0.401,0.107-0.669,0.488-0.635,0.901   c0.024,0.311,0.163,3.044-2.587,3.3c-2.325,0.203-3.953-3.013-5.532-6.153c-0.97-1.928-1.973-3.922-3.211-5.278   c-1.645-1.801-3.83-2.752-6.316-2.752c-4.369,0-8.731,2.929-10.506,6.753c-1.775-3.823-6.139-6.753-10.507-6.753   c-2.487,0-4.671,0.952-6.316,2.752c-1.239,1.357-2.243,3.351-3.213,5.28c-1.581,3.139-3.227,6.37-5.532,6.151   c-2.75-0.255-2.611-2.989-2.586-3.295c0.037-0.415-0.229-0.797-0.632-0.906c-0.399-0.109-0.824,0.084-1.003,0.462   c-0.082,0.175-0.245,0.526-0.413,0.924c-0.361-0.665-0.708-1.461-0.708-1.848c0-1.04-0.862-1.052-0.898-1.052   c-0.254,0-0.519,0.128-0.683,0.322c-0.546,0.648-1.231,5.014-0.729,7.945c0.875,5.125,4.399,7.947,9.925,7.947   c2.187,0,4.312-0.43,6.007-0.911c-1.79,2.06-3.344,4.241-4.689,6.44c2.673,0.736,5.332,1.884,7.974,3.44   c0.115-0.359,0.231-0.806,0.375-1.477c2.482-8.764,7.746-13.598,14.337-16.548c0.229,0.234,0.476,0.464,0.754,0.683   c4.278,3.393,12.068,6.217,14.354,7.001c1.823,0.625,4.602,1.372,7.479,1.372c5.527,0,9.052-2.822,9.925-7.946   C96.46,31.628,95.775,27.262,95.229,26.616z"/>
	<path d="M37.31,54.58c-1.937,4.271-4.092,7.689-5.003,8.901c-2.066,2.866-3.698,3.614-4.696,1.261   c-2.06-5.542-4.458-10.182-7.462-13.205c-2.014-1.594-16.06,5.165-16.281,8.099c0.66,4.694,2.974,10.692,8.681,17.456   c5.54,6.562,11.338,5.755,17.092,3.215c7.819-3.45,14.658-14.174,16.815-21.54c0.921-3.142,1.282-4.653,1.62-5.56   c-2.545-1.58-5.273-2.814-8.158-3.748C38.931,51.188,38.069,52.908,37.31,54.58z"/>
</g>
</svg>